<svg id="Layer_1" data-name="Layer 1" xmlns="http://www.w3.org/2000/svg" viewBox="0 0 1000 245"><defs><style>.cls-1{fill:#e6e6e6;}</style></defs><title>logo</title><path class="cls-1" d="M1.75,238.07l16.14-71.89h2.59l2,14.47a193.43,193.43,0,0,0,7.09,20,77.43,77.43,0,0,0,9.36,16.52L4,238.07Zm86.06,1.52q-17.84,0-30.31-6.24a58,58,0,0,1-20.57-16.83,82.39,82.39,0,0,1-12.49-23.61,159.5,159.5,0,0,1-6.55-26.73h2.59A131.09,131.09,0,0,0,26.35,191a83.22,83.22,0,0,0,11.72,22.62,56.52,56.52,0,0,0,19.2,16.53q11.64,6.24,28.4,6.24,15.39,0,27-5.78A45.53,45.53,0,0,0,131,214.69a41.8,41.8,0,0,0,6.62-23.38q0-12.94-5.1-21.55A46.76,46.76,0,0,0,119,155.21a138.35,138.35,0,0,0-18.5-10.89q-10-4.95-20.18-10.28A107.17,107.17,0,0,1,61.68,121.7a51.94,51.94,0,0,1-13.55-17.44Q43,93.84,43,78.44,43,60,50.56,46.08A74.79,74.79,0,0,1,70.21,22.62,88.6,88.6,0,0,1,96.34,8.3a82.86,82.86,0,0,1,26.8-4.79q19.5,0,32.83,8.91a60.41,60.41,0,0,1,20.86,24.44,111.94,111.94,0,0,1,10,35.49h-2.59a111.45,111.45,0,0,0-9.52-34,57.06,57.06,0,0,0-19.42-23.23Q143,6.71,125.12,6.7a49.47,49.47,0,0,0-20.79,4.57A42.17,42.17,0,0,0,88,24.3a32.43,32.43,0,0,0-6.4,20.18q0,10.82,5.18,18.28A47.87,47.87,0,0,0,100.45,75.7a187.87,187.87,0,0,0,18.73,10.51q10.2,5,20.49,10.82a94.87,94.87,0,0,1,18.73,13.78A60.09,60.09,0,0,1,172,130.23q5.1,11.43,5.1,28.18A71.32,71.32,0,0,1,170.21,189,82.89,82.89,0,0,1,151,215a94.71,94.71,0,0,1-28.56,18A90.92,90.92,0,0,1,87.81,239.59ZM184.22,72.35l-.76-10.81q-2.75-10-6.17-19.35a80.65,80.65,0,0,0-10.74-19.34L200.06,3.51h2.29L186.81,72.35Z"/><path class="cls-1" d="M118.27,235v-2.59h67V235Zm26.2,0L278.81,2h21.62l28.94,233H275L255.81,47.37,147.51,235Zm44.93-73.26v-2.59h99.46v2.59ZM240,235v-2.59H347.35V235Z"/><path class="cls-1" d="M299.21,235v-2.59h67.48V235Zm28.64,0L378.26,9.14H348V6.55h33.66L330.59,235Zm150.94,3L379.33,6.55H436.6L500,155.06,533.78,6.55h2.74l-52.7,231.52ZM497.22,9.14V6.55h71V9.14Z"/><path class="cls-1" d="M577.64,238.07q-38.39,0-59.71-21.78t-21.32-58.95a162.6,162.6,0,0,1,28.1-92.76,153.07,153.07,0,0,1,29.93-32.74,131.23,131.23,0,0,1,36.1-21,107.78,107.78,0,0,1,38.68-7.31q24.23,0,42.42,9.82a69.81,69.81,0,0,1,28.33,28q10.14,18.13,10.13,43,0,33.66-11,61.77a156.52,156.52,0,0,1-29.85,48.74,137.37,137.37,0,0,1-42.58,32A112.82,112.82,0,0,1,577.64,238.07Zm0-2.59q12.33,0,23.3-8.15t20.18-22.46a200.06,200.06,0,0,0,16.68-32.52A287.84,287.84,0,0,0,650.37,134,365.3,365.3,0,0,0,658.21,94,276.6,276.6,0,0,0,661,56.36a108.57,108.57,0,0,0-1.6-19A53.68,53.68,0,0,0,654,21.33a31.39,31.39,0,0,0-9.75-11.2q-6-4.19-14.85-4.19-11.56,0-22.31,8.23t-20,22.54a198.11,198.11,0,0,0-16.75,32.44,321.75,321.75,0,0,0-13,38.31,348,348,0,0,0-8.45,40.14,256.07,256.07,0,0,0-3,37.62q0,16.14,3,27.41t9.9,17.06Q565.76,235.48,577.64,235.48Z"/><path class="cls-1" d="M692.18,244.31q-14.62,0-25.74-5.4a44.4,44.4,0,0,1-17.52-14.63,35.55,35.55,0,0,1-6.4-20.79,29.61,29.61,0,0,1,3.89-15.38,27.1,27.1,0,0,1,10.12-10.05,26.66,26.66,0,0,1,13.26-3.51,27.78,27.78,0,0,1,12.49,3.13,28.24,28.24,0,0,1,10.5,9.14,24.71,24.71,0,0,1,4.27,14.69,23.43,23.43,0,0,1-4,13.56A28,28,0,0,1,683,224.13a27.59,27.59,0,0,1-13.17,3.28,27.17,27.17,0,0,1-12.8-3.28,29.21,29.21,0,0,1-10.2-8.68,19.77,19.77,0,0,1-4-12h2.43a32.58,32.58,0,0,0,3.51,15.08,37.72,37.72,0,0,0,9.36,11.81A42.59,42.59,0,0,0,671.46,238a45.31,45.31,0,0,0,15.39,2.67q9,0,15.91-7.46t12.42-21.63a262,262,0,0,0,10.2-34.43L765,6.55h47.83l-39.6,176.69a201.48,201.48,0,0,1-15.16,21.55,153.92,153.92,0,0,1-18.89,19.72,91,91,0,0,1-22.08,14.4A59.17,59.17,0,0,1,692.18,244.31ZM724.31,9.14V6.55h119V9.14Z"/><path class="cls-1" d="M741.83,235v-2.59h67V235Zm26.2,0L902.37,2H924l28.94,233H898.56L879.37,47.37,771.07,235ZM813,161.76v-2.59h99.46v2.59ZM863.53,235v-2.59H970.91V235Z"/><path class="cls-1" d="M970,238.07a26.75,26.75,0,0,1-14.09-3.81,29.32,29.32,0,0,1-10.13-10.13A26.46,26.46,0,0,1,942,210.2a26.75,26.75,0,0,1,3.8-14.09,28.79,28.79,0,0,1,10.13-10.06,28.19,28.19,0,0,1,28,0A28.17,28.17,0,0,1,994,196.11,26.87,26.87,0,0,1,997.71,210,27.16,27.16,0,0,1,994,224.13a28.68,28.68,0,0,1-10.05,10.13A26.51,26.51,0,0,1,970,238.07Z"/></svg>